<svg width="99" height="26" viewBox="0 0 99 26" fill="none" xmlns="http://www.w3.org/2000/svg">
<path d="M10.9746 15.4473C10.9746 16.847 10.4863 17.9131 9.50977 18.6455C8.54134 19.3779 7.0887 19.7441 5.15186 19.7441C4.15902 19.7441 3.31266 19.675 2.61279 19.5366C1.91292 19.4064 1.25781 19.2111 0.647461 18.9507V15.8745C1.33919 16.2 2.11637 16.4727 2.979 16.6924C3.84977 16.9121 4.61475 17.022 5.27393 17.022C6.62484 17.022 7.30029 16.6313 7.30029 15.8501C7.30029 15.5571 7.21077 15.3211 7.03174 15.1421C6.8527 14.9549 6.54346 14.7474 6.104 14.5195C5.66455 14.2835 5.07861 14.0109 4.34619 13.7017C3.29639 13.2622 2.52327 12.8553 2.02686 12.481C1.53857 12.1066 1.1805 11.6794 0.952637 11.1992C0.73291 10.7109 0.623047 10.1128 0.623047 9.40479C0.623047 8.19222 1.09098 7.25635 2.02686 6.59717C2.97087 5.92985 4.3055 5.59619 6.03076 5.59619C7.67464 5.59619 9.27376 5.95426 10.8281 6.67041L9.70508 9.35596C9.02148 9.06299 8.38265 8.82292 7.78857 8.63574C7.1945 8.44857 6.58822 8.35498 5.96973 8.35498C4.87109 8.35498 4.32178 8.65202 4.32178 9.24609C4.32178 9.57975 4.49674 9.86865 4.84668 10.1128C5.20475 10.3569 5.98193 10.7191 7.17822 11.1992C8.2443 11.6305 9.02555 12.0334 9.52197 12.4077C10.0184 12.7821 10.3846 13.2134 10.6206 13.7017C10.8566 14.1899 10.9746 14.7718 10.9746 15.4473ZM21.375 19.7441C19.7718 19.7441 18.5145 19.1623 17.603 17.9985H17.4077C17.5379 19.1379 17.603 19.797 17.603 19.9761V25.5059H13.8799V5.85254H16.9072L17.4321 7.62256H17.603C18.4738 6.27165 19.7637 5.59619 21.4727 5.59619C23.084 5.59619 24.3454 6.21875 25.2568 7.46387C26.1683 8.70898 26.624 10.4383 26.624 12.6519C26.624 14.1086 26.4084 15.374 25.9771 16.4482C25.5539 17.5225 24.9476 18.3403 24.1582 18.9019C23.3688 19.4634 22.4411 19.7441 21.375 19.7441ZM20.2764 8.57471C19.3568 8.57471 18.6854 8.85954 18.2622 9.4292C17.839 9.99072 17.6193 10.9225 17.603 12.2246V12.6274C17.603 14.0923 17.8187 15.1421 18.25 15.7769C18.6895 16.4116 19.3812 16.729 20.3252 16.729C21.9935 16.729 22.8276 15.3537 22.8276 12.603C22.8276 11.2603 22.6201 10.2552 22.2051 9.58789C21.7982 8.91243 21.1553 8.57471 20.2764 8.57471ZM32.6665 12.6519C32.6665 14.0028 32.8862 15.0241 33.3257 15.7158C33.7733 16.4076 34.4976 16.7534 35.4985 16.7534C36.4914 16.7534 37.2035 16.4116 37.6348 15.728C38.0742 15.0363 38.2939 14.0109 38.2939 12.6519C38.2939 11.3009 38.0742 10.2878 37.6348 9.6123C37.1953 8.93685 36.4751 8.59912 35.4741 8.59912C34.4813 8.59912 33.7651 8.93685 33.3257 9.6123C32.8862 10.2796 32.6665 11.2928 32.6665 12.6519ZM42.1025 12.6519C42.1025 14.8735 41.5166 16.611 40.3447 17.8643C39.1729 19.1175 37.5412 19.7441 35.4497 19.7441C34.1395 19.7441 32.9839 19.4593 31.9829 18.8896C30.9819 18.3118 30.2129 17.4858 29.6758 16.4116C29.1387 15.3374 28.8701 14.0841 28.8701 12.6519C28.8701 10.422 29.452 8.68864 30.6157 7.45166C31.7795 6.21468 33.4152 5.59619 35.5229 5.59619C36.8332 5.59619 37.9888 5.88102 38.9897 6.45068C39.9907 7.02035 40.7598 7.83822 41.2969 8.9043C41.834 9.97038 42.1025 11.2196 42.1025 12.6519ZM52.7959 5.59619C53.3005 5.59619 53.7196 5.63281 54.0532 5.70605L53.7725 9.19727C53.4714 9.11589 53.1051 9.0752 52.6738 9.0752C51.4857 9.0752 50.5579 9.38037 49.8906 9.99072C49.2314 10.6011 48.9019 11.4556 48.9019 12.5542V19.5H45.1787V5.85254H47.9985L48.5479 8.14746H48.731C49.1541 7.38249 49.7238 6.76807 50.4399 6.3042C51.1642 5.83219 51.9495 5.59619 52.7959 5.59619ZM62.2808 16.7778C62.9318 16.7778 63.7131 16.6354 64.6245 16.3506V19.1216C63.6968 19.5366 62.5575 19.7441 61.2065 19.7441C59.7173 19.7441 58.6309 19.3698 57.9473 18.6211C57.2718 17.8643 56.9341 16.7331 56.9341 15.2275V8.64795H55.1519V7.07324L57.2026 5.82812L58.2769 2.94727H60.6572V5.85254H64.478V8.64795H60.6572V15.2275C60.6572 15.7565 60.8037 16.1471 61.0967 16.3994C61.3978 16.6517 61.7925 16.7778 62.2808 16.7778ZM74.9883 5.59619C76.5996 5.59619 77.861 6.22689 78.7725 7.48828C79.6839 8.74154 80.1396 10.4627 80.1396 12.6519C80.1396 14.9061 79.6676 16.6517 78.7236 17.8887C77.7878 19.1257 76.5101 19.7441 74.8906 19.7441C73.2874 19.7441 72.0301 19.1623 71.1187 17.9985H70.8623L70.2397 19.5H67.3955V0.505859H71.1187V4.9248C71.1187 5.48633 71.0698 6.38558 70.9722 7.62256H71.1187C71.9894 6.27165 73.2793 5.59619 74.9883 5.59619ZM73.792 8.57471C72.8724 8.57471 72.201 8.85954 71.7778 9.4292C71.3547 9.99072 71.1349 10.9225 71.1187 12.2246V12.6274C71.1187 14.0923 71.3343 15.1421 71.7656 15.7769C72.2051 16.4116 72.8968 16.729 73.8408 16.729C74.6058 16.729 75.2121 16.3791 75.6597 15.6792C76.1154 14.9712 76.3433 13.9458 76.3433 12.603C76.3433 11.2603 76.1154 10.2552 75.6597 9.58789C75.2039 8.91243 74.5814 8.57471 73.792 8.57471ZM83.0571 2.32471C83.0571 1.11214 83.7326 0.505859 85.0835 0.505859C86.4344 0.505859 87.1099 1.11214 87.1099 2.32471C87.1099 2.90251 86.939 3.35417 86.5972 3.67969C86.2635 3.99707 85.759 4.15576 85.0835 4.15576C83.7326 4.15576 83.0571 3.54541 83.0571 2.32471ZM86.939 19.5H83.2158V5.85254H86.939V19.5ZM96.6069 16.7778C97.258 16.7778 98.0392 16.6354 98.9507 16.3506V19.1216C98.0229 19.5366 96.8836 19.7441 95.5327 19.7441C94.0435 19.7441 92.957 19.3698 92.2734 18.6211C91.598 17.8643 91.2603 16.7331 91.2603 15.2275V8.64795H89.478V7.07324L91.5288 5.82812L92.603 2.94727H94.9834V5.85254H98.8042V8.64795H94.9834V15.2275C94.9834 15.7565 95.1299 16.1471 95.4229 16.3994C95.724 16.6517 96.1187 16.7778 96.6069 16.7778Z" fill="black"/>
</svg>
